<?xml version="1.0" encoding="utf-8"?>
<!-- Generator: Adobe Illustrator 16.0.0, SVG Export Plug-In . SVG Version: 6.00 Build 0)  -->
<!DOCTYPE svg PUBLIC "-//W3C//DTD SVG 1.1//EN" "http://www.w3.org/Graphics/SVG/1.1/DTD/svg11.dtd">
<svg version="1.1" id="图层_1" xmlns="http://www.w3.org/2000/svg" xmlns:xlink="http://www.w3.org/1999/xlink" x="0px" y="0px"
	 width="54px" height="60px" viewBox="0 0 54 60" enable-background="new 0 0 54 60" xml:space="preserve">
<path fill-rule="evenodd" clip-rule="evenodd" fill="#D75249" d="M49.5,16.999H34.088c7.303-3.042,16.42-9.101,10.377-14.955
	c-1.475-1.429-3.028-2.045-4.58-2.045c-5.155,0-10.282,6.803-12.383,13.217C25.401,6.801,20.272,0,15.116,0
	c-1.552,0-3.106,0.616-4.581,2.044c-6.043,5.854,3.073,11.913,10.376,14.955H4.5c-3.038,0-4.5,1.462-4.5,4.5v5.045
	c0,2.478,0.99,3.89,3,4.33V31h0.909C3.941,31.002,3.968,31.01,4,31.012v22.987C4,58.418,5.582,60,10,60h12h11h11
	c4.418,0,6-1.582,6-6.001V31.012C50.032,31.01,51,31,51,31v-0.126c2.01-0.44,3-1.853,3-4.33v-5.045
	C54,18.461,52.537,16.999,49.5,16.999z M39.885,1.999c1.116,0,2.159,0.485,3.188,1.481c1.435,1.39,1.438,2.412,1.314,3.06
	c-0.5,2.639-4.845,6.02-11.069,8.613L28.885,17h-0.518l1.035-3.162C31.267,8.145,35.805,1.999,39.885,1.999z M31,19v10h-7V19
	 M10.612,6.541c-0.123-0.648-0.12-1.67,1.315-3.06C12.956,2.484,13.999,2,15.116,2c4.082,0,8.621,6.145,10.485,11.839L26.636,17
	h-0.522l-4.434-1.847C15.457,12.56,11.112,9.179,10.612,6.541z M22,18.999V29H3.966C2.64,28.893,2,28.46,2,26.543v-5.045
	c0-1.939,0.561-2.5,2.5-2.5 M10,58c-3.327,0-4-0.673-4-4.001V31.012V31h16v27H10z M24,58V31h7v27H24z M48,31.012v22.987
	C48,57.327,47.327,58,44,58H33V31h15V31.012z M49.5,18.999c1.939,0,2.5,0.561,2.5,2.5v5.045c0,1.917-0.64,2.349-1.966,2.457H33
	V18.999"/>
</svg>
