<?xml version="1.0" encoding="utf-8"?>
<!-- Generator: Adobe Illustrator 16.0.0, SVG Export Plug-In . SVG Version: 6.00 Build 0)  -->
<!DOCTYPE svg PUBLIC "-//W3C//DTD SVG 1.1//EN" "http://www.w3.org/Graphics/SVG/1.1/DTD/svg11.dtd">
<svg version="1.1" id="图层_1" xmlns="http://www.w3.org/2000/svg" xmlns:xlink="http://www.w3.org/1999/xlink" x="0px" y="0px"
	 width="48px" height="59px" viewBox="0 0 48 59" enable-background="new 0 0 48 59" xml:space="preserve">
<g>
	<path fill="#D75249" d="M14.5,43c1.378,0,2.5,1.121,2.5,2.5c0,1.378-1.122,2.499-2.5,2.499S12,46.878,12,45.5
		C12,44.121,13.122,43,14.5,43 M14.5,41c-2.485,0-4.5,2.014-4.5,4.5c0,2.484,2.015,4.499,4.5,4.499S19,47.984,19,45.5
		C19,43.014,16.985,41,14.5,41L14.5,41z"/>
</g>
<g>
	<path fill="#D75249" d="M30.5,38.999c1.379,0,2.5,1.122,2.5,2.501c0,1.378-1.121,2.499-2.5,2.499S28,42.878,28,41.5
		C28,40.121,29.121,38.999,30.5,38.999 M30.5,36.999c-2.485,0-4.5,2.015-4.5,4.501c0,2.484,2.015,4.499,4.5,4.499S35,43.984,35,41.5
		C35,39.014,32.985,36.999,30.5,36.999L30.5,36.999z"/>
</g>
<g>
	<path fill="#D75249" d="M44,14c1.103,0,2,0.897,2,2v39c0,1.103-0.897,2-2,2H4c-1.103,0-2-0.897-2-2V16c0-1.103,0.897-2,2-2H44
		 M44,12H4c-2.209,0-4,1.791-4,4v39c0,2.209,1.791,4,4,4h40c2.209,0,4-1.791,4-4V16C48,13.791,46.209,12,44,12L44,12z"/>
</g>
<path fill-rule="evenodd" clip-rule="evenodd" fill="none" stroke="#D75249" stroke-width="2" stroke-miterlimit="10" d="M36,20v-6
	c0-7.29-5.271-13-12-13c-6.729,0-12,5.71-12,13v6"/>
<path fill-rule="evenodd" clip-rule="evenodd" fill="none" stroke="#D75249" stroke-width="2" stroke-miterlimit="10" d="M34,41.499
	v-1.302V29c0-3.133-1.451-3.133-1.928-3.133c-0.256,0-0.54,0.036-0.81,0.098l-10.964,2.99C18.091,29.644,18,30.567,18,33.999V45.5"
	/>
</svg>
